<svg width="142" height="142" viewBox="0 0 142 142" fill="none" xmlns="http://www.w3.org/2000/svg">
<path d="M140.224 106.966V120.717C140.224 122.666 138.643 124.25 136.688 124.25H84.3869C82.4345 124.25 80.8487 122.666 80.8487 120.717V106.966C80.8487 105.017 82.4345 103.436 84.3869 103.436H101.987C101.298 103.453 100.881 104.137 100.638 104.807L97.6141 117.618L94.9351 106.856H91.8144L88.9763 117.68L86.516 106.856H83.5123L87.2735 120.811L90.5532 120.792L93.2919 110.868L95.9135 120.792H99.2131L102.61 107.765L103.063 106.036C103.063 106.036 103.063 106.031 103.065 106.029C103.065 106.025 103.067 106.018 103.067 106.011C103.072 106 103.074 105.981 103.08 105.961C103.085 105.95 103.087 105.937 103.091 105.923C103.094 105.917 103.094 105.912 103.098 105.906C103.1 105.888 103.107 105.873 103.116 105.853C103.167 105.701 103.255 105.465 103.403 105.202C103.5 105.021 103.628 104.821 103.792 104.629C103.836 104.576 103.88 104.525 103.926 104.474C103.973 104.421 104.028 104.371 104.081 104.322C104.149 104.26 104.216 104.201 104.286 104.148C104.657 103.848 105.132 103.605 105.737 103.497C105.828 103.48 105.918 103.467 106.011 103.458C106.153 103.44 106.298 103.433 106.453 103.433H136.684C138.643 103.436 140.224 105.017 140.224 106.966Z" fill="#4D9295"/>
<path d="M8.87283 115.14C9.92632 114.86 10.7192 114.353 11.2515 113.612C11.7837 112.873 12.051 112.046 12.051 111.126C12.051 110.328 11.861 109.607 11.4812 108.961C11.1035 108.314 10.5337 107.803 9.77172 107.423C9.01197 107.042 8.09539 106.854 7.01318 106.854H1.77441V120.79H4.5749V115.36H5.89343L8.97441 120.79H12.2166L8.87283 115.14ZM6.9116 113.265H4.57048V109.17H6.9116C7.67135 109.17 8.23675 109.349 8.61221 109.699C8.98326 110.052 9.17319 110.548 9.17319 111.188C9.17319 111.841 8.98546 112.35 8.61221 112.716C8.23896 113.08 7.67135 113.265 6.9116 113.265Z" fill="#47C2CB"/>
<path d="M24.892 114.878C24.892 113.8 24.6623 112.847 24.2008 112.016C23.7414 111.184 23.0943 110.54 22.2616 110.086C21.429 109.634 20.4881 109.409 19.4346 109.409C18.3392 109.409 17.374 109.64 16.5325 110.106C15.6933 110.573 15.0373 111.237 14.5735 112.104C14.1075 112.97 13.8756 113.974 13.8756 115.118C13.8756 116.25 14.1119 117.251 14.5846 118.113C15.0572 118.98 15.7176 119.65 16.5657 120.12C17.4115 120.594 18.3679 120.83 19.4368 120.83C20.7554 120.83 21.8685 120.486 22.7762 119.8C23.6795 119.117 24.2935 118.241 24.616 117.176H21.5968C21.1551 118.069 20.4152 118.512 19.3772 118.512C18.655 118.512 18.052 118.287 17.5551 117.831C17.0626 117.379 16.7821 116.753 16.7158 115.954H24.817C24.8633 115.637 24.892 115.279 24.892 114.878ZM16.7313 114.08C16.8395 113.334 17.1288 112.752 17.6015 112.331C18.0741 111.914 18.6572 111.705 19.3529 111.705C20.0861 111.705 20.7068 111.921 21.2125 112.351C21.7183 112.785 21.9789 113.361 21.9922 114.08H16.7313Z" fill="#47C2CB"/>
<path d="M43.9783 110.814C43.1456 109.983 42.048 109.568 40.6897 109.568C39.8902 109.568 39.1437 109.76 38.459 110.148C37.7699 110.532 37.2487 111.048 36.8865 111.685C36.5154 111.008 35.9898 110.486 35.3073 110.119C34.6293 109.751 33.8541 109.57 32.9905 109.57C32.3081 109.57 31.6852 109.703 31.1176 109.967C30.55 110.236 30.0884 110.6 29.7284 111.066V109.729H26.928V120.791H29.7284V114.68C29.7284 113.818 29.9537 113.154 30.3998 112.695C30.846 112.234 31.4556 112.005 32.2286 112.005C32.9905 112.005 33.5891 112.234 34.0308 112.695C34.4703 113.154 34.6889 113.818 34.6889 114.68V120.791H37.4894V114.68C37.4894 113.818 37.7125 113.154 38.1608 112.695C38.607 112.234 39.2099 112.005 39.9697 112.005C40.7316 112.005 41.3302 112.234 41.7719 112.695C42.2114 113.154 42.43 113.818 42.43 114.68V120.791H45.2305V114.303C45.2261 112.808 44.8109 111.646 43.9783 110.814Z" fill="#47C2CB"/>
<path d="M57.8374 112.124C57.3383 111.257 56.6536 110.591 55.7856 110.117C54.9199 109.645 53.9547 109.409 52.888 109.409C51.8212 109.409 50.8538 109.645 49.9859 110.117C49.1179 110.591 48.4376 111.259 47.9385 112.124C47.4349 112.99 47.1854 113.987 47.1854 115.118C47.1854 116.25 47.4283 117.251 47.9164 118.113C48.4023 118.98 49.0693 119.65 49.924 120.12C50.7765 120.594 51.7395 120.83 52.804 120.83C53.884 120.83 54.8624 120.594 55.7326 120.12C56.6072 119.648 57.3007 118.978 57.8131 118.113C58.3255 117.251 58.5817 116.25 58.5817 115.118C58.5861 113.987 58.3365 112.988 57.8374 112.124ZM55.3086 116.916C55.0413 117.408 54.6835 117.778 54.2396 118.025C53.7913 118.272 53.3142 118.391 52.8085 118.391C52.0089 118.391 51.3442 118.111 50.8185 117.546C50.2929 116.98 50.03 116.173 50.03 115.118C50.03 114.066 50.2995 113.259 50.8406 112.693C51.3795 112.126 52.0509 111.843 52.8504 111.843C53.6499 111.843 54.328 112.126 54.8823 112.693C55.4323 113.259 55.7127 114.066 55.7127 115.118C55.7083 115.826 55.5736 116.424 55.3086 116.916Z" fill="#47C2CB"/>
<path d="M65.0882 118.435C64.6598 118.435 64.3572 118.352 64.1783 118.186C63.9994 118.019 63.9089 117.747 63.9089 117.377V112.025H66.2323V109.727H63.9089L63.9022 106.871H61.0819L61.0885 109.727H58.7562V112.025H61.0885V117.357C61.0885 119.644 62.2701 120.791 64.6267 120.791H66.3869V118.435H65.0882Z" fill="#47C2CB"/>
<path d="M78.704 114.878C78.704 113.8 78.4743 112.847 78.0149 112.016C77.5533 111.184 76.9084 110.54 76.0758 110.086C75.2431 109.634 74.2979 109.409 73.2444 109.409C72.1511 109.409 71.1837 109.64 70.3423 110.106C69.5052 110.573 68.8515 111.237 68.3855 112.104C67.9172 112.97 67.6831 113.974 67.6831 115.118C67.6831 116.25 67.9194 117.251 68.3943 118.113C68.8669 118.98 69.5251 119.65 70.371 120.12C71.2169 120.594 72.1754 120.83 73.2421 120.83C74.5607 120.83 75.6738 120.486 76.5815 119.8C77.4893 119.117 78.0988 118.241 78.4213 117.176H75.4021C74.9626 118.069 74.2206 118.512 73.1825 118.512C72.4647 118.512 71.8574 118.287 71.3648 117.831C70.8723 117.379 70.5918 116.753 70.5256 115.954H78.6267C78.6775 115.637 78.704 115.279 78.704 114.878ZM70.5455 114.08C70.6493 113.334 70.9408 112.752 71.4156 112.331C71.8883 111.914 72.4714 111.705 73.1626 111.705C73.8981 111.705 74.5143 111.921 75.0245 112.351C75.5303 112.785 75.7909 113.361 75.8041 114.08H70.5455Z" fill="#47C2CB"/>
<path d="M112.261 109.587V111.166C111.886 110.657 111.391 110.24 110.771 109.907C110.152 109.574 109.428 109.409 108.602 109.409C107.656 109.409 106.799 109.64 106.035 110.106C105.267 110.573 104.659 111.237 104.213 112.104C103.767 112.97 103.546 113.961 103.546 115.079C103.546 116.21 103.769 117.213 104.213 118.087C104.659 118.956 105.267 119.633 106.035 120.111C106.802 120.592 107.652 120.832 108.582 120.832C109.408 120.832 110.141 120.66 110.771 120.321C111.404 119.983 111.901 119.553 112.261 119.033V120.832H115.082V109.587H112.261ZM111.864 116.867C111.594 117.352 111.237 117.725 110.782 117.985C110.329 118.246 109.843 118.376 109.324 118.376C108.814 118.376 108.339 118.241 107.893 117.974C107.444 117.707 107.087 117.324 106.813 116.825C106.539 116.327 106.402 115.745 106.402 115.076C106.402 114.413 106.541 113.837 106.813 113.352C107.087 112.865 107.44 112.496 107.882 112.243C108.321 111.989 108.803 111.861 109.322 111.861C109.841 111.861 110.327 111.993 110.779 112.251C111.234 112.512 111.592 112.882 111.862 113.37C112.129 113.855 112.259 114.437 112.259 115.114C112.261 115.798 112.129 116.382 111.864 116.867Z" fill="white"/>
<path d="M122.032 110.066C121.451 110.399 120.983 110.858 120.623 111.445V109.727H117.82V120.789H120.621V115.278C120.621 114.254 120.844 113.535 121.288 113.121C121.736 112.711 122.399 112.501 123.278 112.501H124.02V109.568C123.273 109.568 122.611 109.733 122.032 110.066Z" fill="white"/>
<path d="M133.879 106.868V111.268C133.49 110.749 132.971 110.33 132.32 110.017C131.666 109.704 130.977 109.55 130.259 109.55C129.312 109.55 128.455 109.781 127.68 110.247C126.907 110.714 126.297 111.378 125.851 112.245C125.405 113.111 125.179 114.101 125.179 115.22C125.179 116.351 125.405 117.354 125.851 118.228C126.297 119.097 126.907 119.774 127.68 120.252C128.455 120.733 129.305 120.973 130.239 120.973C131.065 120.973 131.792 120.806 132.419 120.47C133.046 120.14 133.532 119.699 133.879 119.154V120.79H136.719V106.868H133.879ZM133.499 117.008C133.232 117.493 132.874 117.868 132.419 118.126C131.966 118.386 131.48 118.517 130.961 118.517C130.451 118.517 129.976 118.382 129.53 118.115C129.082 117.848 128.724 117.465 128.45 116.966C128.176 116.468 128.04 115.886 128.04 115.217C128.04 114.554 128.179 113.978 128.45 113.493C128.724 113.005 129.078 112.637 129.519 112.384C129.959 112.13 130.436 112.002 130.959 112.002C131.478 112.002 131.964 112.134 132.417 112.392C132.872 112.653 133.23 113.023 133.497 113.51C133.764 113.996 133.899 114.578 133.899 115.255C133.899 115.941 133.764 116.523 133.499 117.008Z" fill="white"/>
<path d="M103.409 105.202C103.299 105.412 103.204 105.63 103.122 105.853C103.173 105.7 103.261 105.464 103.409 105.202Z" fill="white"/>
<path d="M103.839 59.2625C101.11 56.0804 95.4801 49.5033 92.7836 46.3613C92.8077 47.0836 92.8398 47.838 92.8318 48.5603H92.8278C92.7313 53.765 91.164 58.6807 88.5358 62.8099L88.5479 62.8219C87.6798 64.1903 86.5667 65.5747 85.4776 66.7826C81.2298 71.7143 72.4087 81.9511 68.2574 86.7785C87.7522 111.313 122.936 83.9174 103.839 59.2625Z" fill="#4D9295"/>
<path d="M82.5768 62.583C82.3879 62.8278 82.1468 63.0966 81.9499 63.3374C81.8896 63.4056 81.8373 63.4618 81.777 63.522C81.765 63.534 72.0277 74.8301 72.0277 74.8301C70.5528 76.5276 66.3171 81.4513 64.9186 83.0725C63.1986 81.0861 61.0325 78.554 59.3125 76.5556L56.7204 79.5532C25.5111 70.6849 24.4944 28.7388 53.3889 17.5831C53.4612 17.551 53.5376 17.527 53.6099 17.5029C53.843 17.4306 54.0881 17.3945 54.3413 17.3945C55.6996 17.3945 56.7968 18.49 56.7968 19.8383C56.7968 20.8576 56.1779 21.7244 55.2978 22.0935C55.2254 22.1297 55.1491 22.1537 55.0687 22.1778C31.9491 30.8616 31.3664 64.8141 55.1129 73.843C55.1169 73.843 58.5891 69.8141 58.5891 69.8141C63.0901 64.5934 67.6111 59.3567 72.112 54.1279C72.1683 54.0678 72.2206 53.9995 72.2768 53.9313C72.313 53.8872 72.3572 53.8471 72.3853 53.7949C77.0269 47.9241 72.8395 38.6505 65.0994 38.7588C60.2488 38.7588 56.2703 42.4787 55.8805 47.2179C55.8725 47.2259 55.8725 47.2299 55.8805 47.2379C55.4585 51.8727 58.6976 56.0822 63.0941 57.0212L53.8229 67.7796C33.7575 56.1023 41.6302 25.5446 65.0994 25.2516C84.3088 25.1072 94.9705 48.1649 82.5768 62.583Z" fill="#47C2CB"/>
</svg>
